<svg xmlns="http://www.w3.org/2000/svg" width="390.13702392578125" height="339.0892333984375" viewBox="-95.92497253417969 -82.39915466308594 390.13702392578125 339.0892333984375"><title>Neo4j Graph Visualization</title><desc>Created using Neo4j (http://www.neo4j.com/)</desc><g class="layer relationships"><g class="relationship" transform="translate(131.66575147568864 98.71316569421076) rotate(202.4070222803656)"><path class="outline" fill="#A5ABB6" stroke="none" d="M 25 0.5 L 46.805547460750105 0.5 L 46.805547460750105 -0.5 L 25 -0.5 Z M 81.2508599607501 0.5 L 103.05640742150021 0.5 L 103.05640742150021 3.5 L 110.05640742150021 0 L 103.05640742150021 -3.5 L 103.05640742150021 -0.5 L 81.2508599607501 -0.5 Z"/><text text-anchor="middle" pointer-events="none" font-size="8px" fill="#000000" x="64.0282037107501" y="3" transform="rotate(180 64.0282037107501 0)" font-family="sans-serif">ORIGIN</text></g><g class="relationship" transform="translate(131.66575147568864 98.71316569421076) rotate(381.34255434669274)"><path class="outline" fill="#A5ABB6" stroke="none" d="M 25 0.5 L 28.55659655402463 0.5 L 28.55659655402463 -0.5 L 25 -0.5 Z M 87.74409655402462 0.5 L 91.30069310804926 0.5 L 91.30069310804926 3.5 L 98.30069310804926 0 L 91.30069310804926 -3.5 L 91.30069310804926 -0.5 L 87.74409655402462 -0.5 Z"/><text text-anchor="middle" pointer-events="none" font-size="8px" fill="#000000" x="58.15034655402463" y="3" font-family="sans-serif">DESTINATION</text></g><g class="relationship" transform="translate(265.2120215641324 33.27618696329793) rotate(459.62202147240447)"><path class="outline" fill="#A5ABB6" stroke="none" d="M 25 0.5 L 35.22006154913514 0.5 L 35.22006154913514 -0.5 L 25 -0.5 Z M 69.66537404913514 0.5 L 79.88543559827028 0.5 L 79.88543559827028 3.5 L 86.88543559827028 0 L 79.88543559827028 -3.5 L 79.88543559827028 -0.5 L 69.66537404913514 -0.5 Z"/><text text-anchor="middle" pointer-events="none" font-size="8px" fill="#000000" x="52.44271779913514" y="3" transform="rotate(180 52.44271779913514 0)" font-family="sans-serif">ORIGIN</text></g><g class="relationship" transform="translate(265.2120215641324 33.27618696329793) rotate(188.5376732764173)"><path class="outline" fill="#A5ABB6" stroke="none" d="M 25 0.5 L 26.79395554267144 0.5 L 26.79395554267144 -0.5 L 25 -0.5 Z M 81.98145554267144 0.5 L 83.77541108534288 0.5 L 83.77541108534288 3.5 L 90.77541108534288 0 L 83.77541108534288 -3.5 L 83.77541108534288 -0.5 L 81.98145554267144 -0.5 Z"/><text text-anchor="middle" pointer-events="none" font-size="8px" fill="#000000" x="54.38770554267144" y="3" transform="rotate(180 54.38770554267144 0)" font-family="sans-serif">DESTINATI…</text></g><g class="relationship" transform="translate(58.91264082397729 -53.39915204987836) rotate(477.37498863010654)"><path class="outline" fill="#A5ABB6" stroke="none" d="M 25 0.5 L 35.93792001237234 0.5 L 35.93792001237234 -0.5 L 25 -0.5 Z M 70.38323251237233 0.5 L 81.32115252474468 0.5 L 81.32115252474468 3.5 L 88.32115252474468 0 L 81.32115252474468 -3.5 L 81.32115252474468 -0.5 L 70.38323251237233 -0.5 Z"/><text text-anchor="middle" pointer-events="none" font-size="8px" fill="#000000" x="53.16057626237234" y="3" transform="rotate(180 53.16057626237234 0)" font-family="sans-serif">ORIGIN</text></g><g class="relationship" transform="translate(58.91264082397729 -53.39915204987836) rotate(397.12155766447654)"><path class="outline" fill="#A5ABB6" stroke="none" d="M 25 0.5 L 26.47578862906753 0.5 L 26.47578862906753 -0.5 L 25 -0.5 Z M 81.66328862906752 0.5 L 83.13907725813506 0.5 L 83.13907725813506 3.5 L 90.13907725813506 0 L 83.13907725813506 -3.5 L 83.13907725813506 -0.5 L 81.66328862906752 -0.5 Z"/><text text-anchor="middle" pointer-events="none" font-size="8px" fill="#000000" x="54.06953862906753" y="3" font-family="sans-serif">DESTINATI…</text></g><g class="relationship" transform="translate(-66.9249716879144 137.3122335842337) rotate(309.30047220034055)"><path class="outline" fill="#A5ABB6" stroke="none" d="M 25 0.5 L 37.4812040715247 0.5 L 37.4812040715247 -0.5 L 25 -0.5 Z M 71.9265165715247 0.5 L 84.4077206430494 0.5 L 84.4077206430494 3.5 L 91.4077206430494 0 L 84.4077206430494 -3.5 L 84.4077206430494 -0.5 L 71.9265165715247 -0.5 Z"/><text text-anchor="middle" pointer-events="none" font-size="8px" fill="#000000" x="54.7038603215247" y="3" font-family="sans-serif">ORIGIN</text></g><g class="relationship" transform="translate(-66.9249716879144 137.3122335842337) rotate(412.69588803156574)"><path class="outline" fill="#A5ABB6" stroke="none" d="M 25 0.5 L 25.716918314289842 0.5 L 25.716918314289842 -0.5 L 25 -0.5 Z M 80.90441831428984 0.5 L 81.62133662857968 0.5 L 81.62133662857968 3.5 L 88.62133662857968 0 L 81.62133662857968 -3.5 L 81.62133662857968 -0.5 L 80.90441831428984 -0.5 Z"/><text text-anchor="middle" pointer-events="none" font-size="8px" fill="#000000" x="53.31066831428984" y="3" font-family="sans-serif">DESTINATI…</text></g><g class="relationship" transform="translate(87.14684746662557 145.35101921779213) rotate(495.98238464114854)"><path class="outline" fill="#A5ABB6" stroke="none" d="M 25 0.5 L 38.52433072129024 0.5 L 38.52433072129024 -0.5 L 25 -0.5 Z M 72.96964322129024 0.5 L 86.49397394258048 0.5 L 86.49397394258048 3.5 L 93.49397394258048 0 L 86.49397394258048 -3.5 L 86.49397394258048 -0.5 L 72.96964322129024 -0.5 Z"/><text text-anchor="middle" pointer-events="none" font-size="8px" fill="#000000" x="55.74698697129024" y="3" transform="rotate(180 55.74698697129024 0)" font-family="sans-serif">ORIGIN</text></g><g class="relationship" transform="translate(87.14684746662557 145.35101921779213) rotate(296.1884167907449)"><path class="outline" fill="#A5ABB6" stroke="none" d="M 25 0.5 L 38.93118853371732 0.5 L 38.93118853371732 -0.5 L 25 -0.5 Z M 98.11868853371732 0.5 L 112.04987706743464 0.5 L 112.04987706743464 3.5 L 119.04987706743464 0 L 112.04987706743464 -3.5 L 112.04987706743464 -0.5 L 98.11868853371732 -0.5 Z"/><text text-anchor="middle" pointer-events="none" font-size="8px" fill="#000000" x="68.52493853371732" y="3" font-family="sans-serif">DESTINATION</text></g></g><g class="layer nodes"><g class="node" transform="translate(6.806194388971943,47.2318662767408)"><circle class="outline" cx="0" cy="0" r="25" fill="#ECB5C9" stroke="#da7298" stroke-width="2px"/><text text-anchor="middle" pointer-events="none" font-family="sans-serif" dy="1.5625" font-size="25" fill="#2A2C34"/><text text-anchor="middle" pointer-events="none" x="0" y="5" font-size="10px" fill="#2A2C34" font-family="sans-serif"> LAX</text></g><g class="node" transform="translate(150.71958015058848,16.088206536663993)"><circle class="outline" cx="0" cy="0" r="25" fill="#ECB5C9" stroke="#da7298" stroke-width="2px"/><text text-anchor="middle" pointer-events="none" font-family="sans-serif" dy="1.5625" font-size="25" fill="#2A2C34"/><text text-anchor="middle" pointer-events="none" x="0" y="5" font-size="10px" fill="#2A2C34" font-family="sans-serif"> DAY</text></g><g class="node" transform="translate(131.66575147568864,98.71316569421076)"><circle class="outline" cx="0" cy="0" r="25" fill="#4C8EDA" stroke="#2870c2" stroke-width="2px"/><text text-anchor="middle" pointer-events="none" font-family="sans-serif" dy="1.5625" font-size="25" fill="#FFFFFF"/><text text-anchor="middle" pointer-events="none" x="0" y="5" font-size="10px" fill="#FFFFFF" font-family="sans-serif"> 01/02/20…</text></g><g class="node" transform="translate(246.5106284293702,143.5876033889506)"><circle class="outline" cx="0" cy="0" r="25" fill="#ECB5C9" stroke="#da7298" stroke-width="2px"/><text text-anchor="middle" pointer-events="none" font-family="sans-serif" dy="1.5625" font-size="25" fill="#2A2C34"/><text text-anchor="middle" pointer-events="none" x="0" y="5" font-size="10px" fill="#2A2C34" font-family="sans-serif"> FAR</text></g><g class="node" transform="translate(265.2120215641324,33.27618696329793)"><circle class="outline" cx="0" cy="0" r="25" fill="#4C8EDA" stroke="#2870c2" stroke-width="2px"/><text text-anchor="middle" pointer-events="none" font-family="sans-serif" dy="1.5625" font-size="25" fill="#FFFFFF"/><text text-anchor="middle" pointer-events="none" x="0" y="5" font-size="10px" fill="#FFFFFF" font-family="sans-serif"> 01/01/20…</text></g><g class="node" transform="translate(58.91264082397729,-53.39915204987836)"><circle class="outline" cx="0" cy="0" r="25" fill="#4C8EDA" stroke="#2870c2" stroke-width="2px"/><text text-anchor="middle" pointer-events="none" font-family="sans-serif" dy="1.5625" font-size="25" fill="#FFFFFF"/><text text-anchor="middle" pointer-events="none" x="0" y="5" font-size="10px" fill="#FFFFFF" font-family="sans-serif"> 01/03/20…</text></g><g class="node" transform="translate(-66.9249716879144,137.3122335842337)"><circle class="outline" cx="0" cy="0" r="25" fill="#4C8EDA" stroke="#2870c2" stroke-width="2px"/><text text-anchor="middle" pointer-events="none" font-family="sans-serif" dy="1.5625" font-size="25" fill="#FFFFFF"/><text text-anchor="middle" pointer-events="none" x="0" y="5" font-size="10px" fill="#FFFFFF" font-family="sans-serif"> 01/04/20…</text></g><g class="node" transform="translate(1.9347266889770403,227.69005208362302)"><circle class="outline" cx="0" cy="0" r="25" fill="#ECB5C9" stroke="#da7298" stroke-width="2px"/><text text-anchor="middle" pointer-events="none" font-family="sans-serif" dy="1.5625" font-size="25" fill="#2A2C34"/><text text-anchor="middle" pointer-events="none" x="0" y="5" font-size="10px" fill="#2A2C34" font-family="sans-serif"> GRR</text></g><g class="node" transform="translate(87.14684746662557,145.35101921779213)"><circle class="outline" cx="0" cy="0" r="25" fill="#4C8EDA" stroke="#2870c2" stroke-width="2px"/><text text-anchor="middle" pointer-events="none" font-family="sans-serif" dy="1.5625" font-size="25" fill="#FFFFFF"/><text text-anchor="middle" pointer-events="none" x="0" y="5" font-size="10px" fill="#FFFFFF" font-family="sans-serif"> 01/06/20…</text></g></g></svg>