<svg xmlns="http://www.w3.org/2000/svg" width="574.8074951171875" height="560.2044677734375" viewBox="-150.4316864013672 -135.12533569335938 574.8074951171875 560.2044677734375"><title>Neo4j Graph Visualization</title><desc>Created using Neo4j (http://www.neo4j.com/)</desc><g class="layer relationships"><g class="relationship" transform="translate(2.2000588229169145 382.726311555839) rotate(367.0493106817819)"><path class="outline" fill="#A5ABB6" stroke="none" d="M 25 0.5 L 28.120960877680275 0.5 L 28.120960877680275 -0.5 L 25 -0.5 Z M 73.68346087768028 0.5 L 76.80442175536055 0.5 L 76.80442175536055 3.5 L 83.80442175536055 0 L 76.80442175536055 -3.5 L 76.80442175536055 -0.5 L 73.68346087768028 -0.5 Z"/><text text-anchor="middle" pointer-events="none" font-size="8px" fill="#000000" x="50.902210877680275" y="3" font-family="sans-serif">ACTED_IN</text></g><g class="relationship" transform="translate(218.10783677870555 380.9976909417851) rotate(532.0450382342202)"><path class="outline" fill="#A5ABB6" stroke="none" d="M 25 0.5 L 28.205981702086312 0.5 L 28.205981702086312 -0.5 L 25 -0.5 Z M 73.76848170208632 0.5 L 76.97446340417262 0.5 L 76.97446340417262 3.5 L 83.97446340417262 0 L 76.97446340417262 -3.5 L 76.97446340417262 -0.5 L 73.76848170208632 -0.5 Z"/><text text-anchor="middle" pointer-events="none" font-size="8px" fill="#000000" x="50.98723170208631" y="3" transform="rotate(180 50.98723170208631 0)" font-family="sans-serif">ACTED_IN</text></g><g class="relationship" transform="translate(110.68860226636998 288.29232665248657) rotate(450.26928132520845)"><path class="outline" fill="#A5ABB6" stroke="none" d="M 25 0.5 L 27.61276831622027 0.5 L 27.61276831622027 -0.5 L 25 -0.5 Z M 73.17526831622027 0.5 L 75.78803663244054 0.5 L 75.78803663244054 3.5 L 82.78803663244054 0 L 75.78803663244054 -3.5 L 75.78803663244054 -0.5 L 73.17526831622027 -0.5 Z"/><text text-anchor="middle" pointer-events="none" font-size="8px" fill="#000000" x="50.39401831622027" y="3" transform="rotate(180 50.39401831622027 0)" font-family="sans-serif">ACTED_IN</text></g><g class="relationship" transform="translate(220.33407462369777 -22.093631565711227) rotate(412.35219583875556)"><path class="outline" fill="#A5ABB6" stroke="none" d="M 25 0.5 L 28.34660045665627 0.5 L 28.34660045665627 -0.5 L 25 -0.5 Z M 73.90910045665626 0.5 L 77.25570091331254 0.5 L 77.25570091331254 3.5 L 84.25570091331254 0 L 77.25570091331254 -3.5 L 77.25570091331254 -0.5 L 73.90910045665626 -0.5 Z"/><text text-anchor="middle" pointer-events="none" font-size="8px" fill="#000000" x="51.12785045665627" y="3" font-family="sans-serif">ACTED_IN</text></g><g class="relationship" transform="translate(395.3757858108326 75.76487070681071) rotate(185.98346305051166)"><path class="outline" fill="#A5ABB6" stroke="none" d="M 25 0.5 L 28.16923224535668 0.5 L 28.16923224535668 -0.5 L 25 -0.5 Z M 73.73173224535668 0.5 L 76.90096449071336 0.5 L 76.90096449071336 3.5 L 83.90096449071336 0 L 76.90096449071336 -3.5 L 76.90096449071336 -0.5 L 73.73173224535668 -0.5 Z"/><text text-anchor="middle" pointer-events="none" font-size="8px" fill="#000000" x="50.95048224535668" y="3" transform="rotate(180 50.95048224535668 0)" font-family="sans-serif">ACTED_IN</text></g><g class="relationship" transform="translate(299.77693645830215 171.91891877642348) rotate(263.2580695208384)"><path class="outline" fill="#A5ABB6" stroke="none" d="M 25 0.5 L 27.84605968612758 0.5 L 27.84605968612758 -0.5 L 25 -0.5 Z M 73.40855968612757 0.5 L 76.25461937225516 0.5 L 76.25461937225516 3.5 L 83.25461937225516 0 L 76.25461937225516 -3.5 L 76.25461937225516 -0.5 L 73.40855968612757 -0.5 Z"/><text text-anchor="middle" pointer-events="none" font-size="8px" fill="#000000" x="50.62730968612758" y="3" transform="rotate(180 50.62730968612758 0)" font-family="sans-serif">ACTED_IN</text></g><g class="relationship" transform="translate(327.0353735592065 -41.078992213154415) rotate(470.7499844277133)"><path class="outline" fill="#A5ABB6" stroke="none" d="M 25 0.5 L 30.12335344268135 0.5 L 30.12335344268135 -0.5 L 25 -0.5 Z M 75.68585344268135 0.5 L 80.8092068853627 0.5 L 80.8092068853627 3.5 L 87.8092068853627 0 L 80.8092068853627 -3.5 L 80.8092068853627 -0.5 L 75.68585344268135 -0.5 Z"/><text text-anchor="middle" pointer-events="none" font-size="8px" fill="#000000" x="52.90460344268135" y="3" transform="rotate(180 52.90460344268135 0)" font-family="sans-serif">ACTED_IN</text></g><g class="relationship" transform="translate(-55.39123292623887 -7.191235435805634) rotate(296.53688247214006)"><path class="outline" fill="#A5ABB6" stroke="none" d="M 25 0.5 L 25.64643133691255 0.5 L 25.64643133691255 -0.5 L 25 -0.5 Z M 71.20893133691254 0.5 L 71.8553626738251 0.5 L 71.8553626738251 3.5 L 78.8553626738251 0 L 71.8553626738251 -3.5 L 71.8553626738251 -0.5 L 71.20893133691254 -0.5 Z"/><text text-anchor="middle" pointer-events="none" font-size="8px" fill="#000000" x="48.42768133691255" y="3" font-family="sans-serif">ACTED_IN</text></g><g class="relationship" transform="translate(-55.39123292623887 -7.191235435805634) rotate(260.0049895221579)"><path class="outline" fill="#A5ABB6" stroke="none" d="M 25 0.5 L 26.17274725174122 0.5 L 26.17274725174122 -0.5 L 25 -0.5 Z M 67.28602850174121 0.5 L 68.45877575348244 0.5 L 68.45877575348244 3.5 L 75.45877575348244 0 L 68.45877575348244 -3.5 L 68.45877575348244 -0.5 L 67.28602850174121 -0.5 Z"/><text text-anchor="middle" pointer-events="none" font-size="8px" fill="#000000" x="46.72938787674122" y="3" transform="rotate(180 46.72938787674122 0)" font-family="sans-serif">ACTED…</text></g><g class="relationship" transform="translate(-55.39123292623887 -7.191235435805634) rotate(453.4221509268866)"><path class="outline" fill="#A5ABB6" stroke="none" d="M 25 0.5 L 27.074123202043012 0.5 L 27.074123202043012 -0.5 L 25 -0.5 Z M 62.41006070204301 0.5 L 64.48418390408602 0.5 L 64.48418390408602 3.5 L 71.48418390408602 0 L 64.48418390408602 -3.5 L 64.48418390408602 -0.5 L 62.41006070204301 -0.5 Z"/><text text-anchor="middle" pointer-events="none" font-size="8px" fill="#000000" x="44.74209195204301" y="3" transform="rotate(180 44.74209195204301 0)" font-family="sans-serif">ACTE…</text></g><g class="relationship" transform="translate(17.245490070155988 -4.520353310827788) rotate(254.65102748290843)"><path class="outline" fill="#A5ABB6" stroke="none" d="M 25 0.5 L 25.503475891954857 0.5 L 25.503475891954857 -0.5 L 25 -0.5 Z M 66.61675714195485 0.5 L 67.12023303390971 0.5 L 67.12023303390971 3.5 L 74.12023303390971 0 L 67.12023303390971 -3.5 L 67.12023303390971 -0.5 L 66.61675714195485 -0.5 Z"/><text text-anchor="middle" pointer-events="none" font-size="8px" fill="#000000" x="46.06011651695486" y="3" transform="rotate(180 46.06011651695486 0)" font-family="sans-serif">ACTED…</text></g><g class="relationship" transform="translate(17.245490070155988 -4.520353310827788) rotate(228.44308294005282)"><path class="outline" fill="#A5ABB6" stroke="none" d="M 25 0.5 L 41.60955205102755 0.5 L 41.60955205102755 -0.5 L 25 -0.5 Z M 87.17205205102755 0.5 L 103.7816041020551 0.5 L 103.7816041020551 3.5 L 110.7816041020551 0 L 103.7816041020551 -3.5 L 103.7816041020551 -0.5 L 87.17205205102755 -0.5 Z"/><text text-anchor="middle" pointer-events="none" font-size="8px" fill="#000000" x="64.39080205102755" y="3" transform="rotate(180 64.39080205102755 0)" font-family="sans-serif">ACTED_IN</text></g><g class="relationship" transform="translate(17.245490070155988 -4.520353310827788) rotate(489.9359359295403)"><path class="outline" fill="#A5ABB6" stroke="none" d="M 25 0.5 L 34.78148532317136 0.5 L 34.78148532317136 -0.5 L 25 -0.5 Z M 80.34398532317135 0.5 L 90.12547064634272 0.5 L 90.12547064634272 3.5 L 97.12547064634272 0 L 90.12547064634272 -3.5 L 90.12547064634272 -0.5 L 80.34398532317135 -0.5 Z"/><text text-anchor="middle" pointer-events="none" font-size="8px" fill="#000000" x="57.56273532317136" y="3" transform="rotate(180 57.56273532317136 0)" font-family="sans-serif">ACTED_IN</text></g><g class="relationship" transform="translate(-121.43168358092683 -16.82941710783819) rotate(323.4755585553522)"><path class="outline" fill="#A5ABB6" stroke="none" d="M 25 0.5 L 43.67885476593547 0.5 L 43.67885476593547 -0.5 L 25 -0.5 Z M 89.24135476593547 0.5 L 107.92020953187094 0.5 L 107.92020953187094 3.5 L 114.92020953187094 0 L 107.92020953187094 -3.5 L 107.92020953187094 -0.5 L 89.24135476593547 -0.5 Z"/><text text-anchor="middle" pointer-events="none" font-size="8px" fill="#000000" x="66.46010476593547" y="3" font-family="sans-serif">ACTED_IN</text></g><g class="relationship" transform="translate(-121.43168358092683 -16.82941710783819) rotate(298.55985577396746)"><path class="outline" fill="#A5ABB6" stroke="none" d="M 25 0.5 L 26.776828893001294 0.5 L 26.776828893001294 -0.5 L 25 -0.5 Z M 67.8901101430013 0.5 L 69.66693903600259 0.5 L 69.66693903600259 3.5 L 76.66693903600259 0 L 69.66693903600259 -3.5 L 69.66693903600259 -0.5 L 67.8901101430013 -0.5 Z"/><text text-anchor="middle" pointer-events="none" font-size="8px" fill="#000000" x="47.333469518001294" y="3" font-family="sans-serif">ACTED…</text></g><g class="relationship" transform="translate(-121.43168358092683 -16.82941710783819) rotate(420.3620202998929)"><path class="outline" fill="#A5ABB6" stroke="none" d="M 25 0.5 L 34.66807189790062 0.5 L 34.66807189790062 -0.5 L 25 -0.5 Z M 80.23057189790062 0.5 L 89.89864379580123 0.5 L 89.89864379580123 3.5 L 96.89864379580123 0 L 89.89864379580123 -3.5 L 89.89864379580123 -0.5 L 80.23057189790062 -0.5 Z"/><text text-anchor="middle" pointer-events="none" font-size="8px" fill="#000000" x="57.44932189790062" y="3" font-family="sans-serif">ACTED_IN</text></g><g class="relationship" transform="translate(-119.98622385229211 183.79904532384066) rotate(301.85796576481937)"><path class="outline" fill="#A5ABB6" stroke="none" d="M 25 0.5 L 29.453798065869485 0.5 L 29.453798065869485 -0.5 L 25 -0.5 Z M 75.01629806586948 0.5 L 79.47009613173897 0.5 L 79.47009613173897 3.5 L 86.47009613173897 0 L 79.47009613173897 -3.5 L 79.47009613173897 -0.5 L 75.01629806586948 -0.5 Z"/><text text-anchor="middle" pointer-events="none" font-size="8px" fill="#000000" x="52.235048065869485" y="3" font-family="sans-serif">ACTED_IN</text></g></g><g class="layer nodes"><g class="node" transform="translate(110.18201698664615,396.07917284640166)"><circle class="outline" cx="0" cy="0" r="25" fill="#57C7E3" stroke="#23b3d7" stroke-width="2px"/><text text-anchor="middle" pointer-events="none" font-family="sans-serif" dy="1.5625" font-size="25" fill="#2A2C34"/><text text-anchor="middle" pointer-events="none" font-family="sans-serif" dy="1.5625" font-size="25" fill="#2A2C34"/><text text-anchor="middle" pointer-events="none" x="0" y="0" font-size="10px" fill="#2A2C34" font-family="sans-serif"> Cloud</text><text text-anchor="middle" pointer-events="none" x="0" y="10" font-size="10px" fill="#2A2C34" font-family="sans-serif"> Atlas</text></g><g class="node" transform="translate(2.2000588229169145,382.726311555839)"><circle class="outline" cx="0" cy="0" r="25" fill="#F79767" stroke="#f36924" stroke-width="2px"/><text text-anchor="middle" pointer-events="none" font-family="sans-serif" dy="1.5625" font-size="25" fill="#FFFFFF"/><text text-anchor="middle" pointer-events="none" font-family="sans-serif" dy="1.5625" font-size="25" fill="#FFFFFF"/><text text-anchor="middle" pointer-events="none" x="0" y="0" font-size="10px" fill="#FFFFFF" font-family="sans-serif"> Tom</text><text text-anchor="middle" pointer-events="none" x="0" y="10" font-size="10px" fill="#FFFFFF" font-family="sans-serif"> Hanks</text></g><g class="node" transform="translate(218.10783677870555,380.9976909417851)"><circle class="outline" cx="0" cy="0" r="25" fill="#F79767" stroke="#f36924" stroke-width="2px"/><text text-anchor="middle" pointer-events="none" font-family="sans-serif" dy="1.5625" font-size="25" fill="#FFFFFF"/><text text-anchor="middle" pointer-events="none" font-family="sans-serif" dy="1.5625" font-size="25" fill="#FFFFFF"/><text text-anchor="middle" pointer-events="none" x="0" y="0" font-size="10px" fill="#FFFFFF" font-family="sans-serif"> Jim</text><text text-anchor="middle" pointer-events="none" x="0" y="10" font-size="10px" fill="#FFFFFF" font-family="sans-serif"> Broadb…</text></g><g class="node" transform="translate(110.68860226636998,288.29232665248657)"><circle class="outline" cx="0" cy="0" r="25" fill="#F79767" stroke="#f36924" stroke-width="2px"/><text text-anchor="middle" pointer-events="none" font-family="sans-serif" dy="1.5625" font-size="25" fill="#FFFFFF"/><text text-anchor="middle" pointer-events="none" font-family="sans-serif" dy="1.5625" font-size="25" fill="#FFFFFF"/><text text-anchor="middle" pointer-events="none" x="0" y="0" font-size="10px" fill="#FFFFFF" font-family="sans-serif"> Halle</text><text text-anchor="middle" pointer-events="none" x="0" y="10" font-size="10px" fill="#FFFFFF" font-family="sans-serif"> Berry</text></g><g class="node" transform="translate(287.06811122748155,64.41287998471513)"><circle class="outline" cx="0" cy="0" r="25" fill="#57C7E3" stroke="#23b3d7" stroke-width="2px"/><text text-anchor="middle" pointer-events="none" font-family="sans-serif" dy="1.5625" font-size="25" fill="#2A2C34"/><text text-anchor="middle" pointer-events="none" font-family="sans-serif" dy="1.5625" font-size="25" fill="#2A2C34"/><text text-anchor="middle" pointer-events="none" x="0" y="0" font-size="10px" fill="#2A2C34" font-family="sans-serif"> V for</text><text text-anchor="middle" pointer-events="none" x="0" y="10" font-size="10px" fill="#2A2C34" font-family="sans-serif"> Vendetta</text></g><g class="node" transform="translate(220.33407462369777,-22.093631565711227)"><circle class="outline" cx="0" cy="0" r="25" fill="#F79767" stroke="#f36924" stroke-width="2px"/><text text-anchor="middle" pointer-events="none" font-family="sans-serif" dy="1.5625" font-size="25" fill="#FFFFFF"/><text text-anchor="middle" pointer-events="none" x="0" y="5" font-size="10px" fill="#FFFFFF" font-family="sans-serif"> John Hurt</text></g><g class="node" transform="translate(395.3757858108326,75.76487070681071)"><circle class="outline" cx="0" cy="0" r="25" fill="#F79767" stroke="#f36924" stroke-width="2px"/><text text-anchor="middle" pointer-events="none" font-family="sans-serif" dy="1.5625" font-size="25" fill="#FFFFFF"/><text text-anchor="middle" pointer-events="none" font-family="sans-serif" dy="1.5625" font-size="25" fill="#FFFFFF"/><text text-anchor="middle" pointer-events="none" x="0" y="0" font-size="10px" fill="#FFFFFF" font-family="sans-serif"> Stephen</text><text text-anchor="middle" pointer-events="none" x="0" y="10" font-size="10px" fill="#FFFFFF" font-family="sans-serif"> Rea</text></g><g class="node" transform="translate(299.77693645830215,171.91891877642348)"><circle class="outline" cx="0" cy="0" r="25" fill="#F79767" stroke="#f36924" stroke-width="2px"/><text text-anchor="middle" pointer-events="none" font-family="sans-serif" dy="1.5625" font-size="25" fill="#FFFFFF"/><text text-anchor="middle" pointer-events="none" font-family="sans-serif" dy="1.5625" font-size="25" fill="#FFFFFF"/><text text-anchor="middle" pointer-events="none" x="0" y="0" font-size="10px" fill="#FFFFFF" font-family="sans-serif"> Natalie</text><text text-anchor="middle" pointer-events="none" x="0" y="10" font-size="10px" fill="#FFFFFF" font-family="sans-serif"> Portman</text></g><g class="node" transform="translate(327.0353735592065,-41.078992213154415)"><circle class="outline" cx="0" cy="0" r="25" fill="#F79767" stroke="#f36924" stroke-width="2px"/><text text-anchor="middle" pointer-events="none" font-family="sans-serif" dy="1.5625" font-size="25" fill="#FFFFFF"/><text text-anchor="middle" pointer-events="none" x="0" y="5" font-size="10px" fill="#FFFFFF" font-family="sans-serif"> Ben Miles</text></g><g class="node" transform="translate(-8.991377033623998,-100.10511884004354)"><circle class="outline" cx="0" cy="0" r="25" fill="#57C7E3" stroke="#23b3d7" stroke-width="2px"/><text text-anchor="middle" pointer-events="none" font-family="sans-serif" dy="1.5625" font-size="25" fill="#2A2C34"/><text text-anchor="middle" pointer-events="none" font-family="sans-serif" dy="1.5625" font-size="25" fill="#2A2C34"/><text text-anchor="middle" pointer-events="none" font-family="sans-serif" dy="1.5625" font-size="25" fill="#2A2C34"/><text text-anchor="middle" pointer-events="none" x="0" y="-5" font-size="10px" fill="#2A2C34" font-family="sans-serif"> The</text><text text-anchor="middle" pointer-events="none" x="0" y="5" font-size="10px" fill="#2A2C34" font-family="sans-serif"> Matrix</text><text text-anchor="middle" pointer-events="none" x="0" y="15" font-size="10px" fill="#2A2C34" font-family="sans-serif"> Revol…</text></g><g class="node" transform="translate(-55.39123292623887,-7.191235435805634)"><circle class="outline" cx="0" cy="0" r="25" fill="#F79767" stroke="#f36924" stroke-width="2px"/><text text-anchor="middle" pointer-events="none" font-family="sans-serif" dy="1.5625" font-size="25" fill="#FFFFFF"/><text text-anchor="middle" pointer-events="none" font-family="sans-serif" dy="1.5625" font-size="25" fill="#FFFFFF"/><text text-anchor="middle" pointer-events="none" x="0" y="0" font-size="10px" fill="#FFFFFF" font-family="sans-serif"> Laurence</text><text text-anchor="middle" pointer-events="none" x="0" y="10" font-size="10px" fill="#FFFFFF" font-family="sans-serif"> Fishbur…</text></g><g class="node" transform="translate(17.245490070155988,-4.520353310827788)"><circle class="outline" cx="0" cy="0" r="25" fill="#F79767" stroke="#f36924" stroke-width="2px"/><text text-anchor="middle" pointer-events="none" font-family="sans-serif" dy="1.5625" font-size="25" fill="#FFFFFF"/><text text-anchor="middle" pointer-events="none" x="0" y="5" font-size="10px" fill="#FFFFFF" font-family="sans-serif"> Carrie-A…</text></g><g class="node" transform="translate(-121.43168358092683,-16.82941710783819)"><circle class="outline" cx="0" cy="0" r="25" fill="#F79767" stroke="#f36924" stroke-width="2px"/><text text-anchor="middle" pointer-events="none" font-family="sans-serif" dy="1.5625" font-size="25" fill="#FFFFFF"/><text text-anchor="middle" pointer-events="none" font-family="sans-serif" dy="1.5625" font-size="25" fill="#FFFFFF"/><text text-anchor="middle" pointer-events="none" x="0" y="0" font-size="10px" fill="#FFFFFF" font-family="sans-serif"> Keanu</text><text text-anchor="middle" pointer-events="none" x="0" y="10" font-size="10px" fill="#FFFFFF" font-family="sans-serif"> Reeves</text></g><g class="node" transform="translate(-72.82710079603068,-106.1253354090486)"><circle class="outline" cx="0" cy="0" r="25" fill="#57C7E3" stroke="#23b3d7" stroke-width="2px"/><text text-anchor="middle" pointer-events="none" font-family="sans-serif" dy="1.5625" font-size="25" fill="#2A2C34"/><text text-anchor="middle" pointer-events="none" font-family="sans-serif" dy="1.5625" font-size="25" fill="#2A2C34"/><text text-anchor="middle" pointer-events="none" font-family="sans-serif" dy="1.5625" font-size="25" fill="#2A2C34"/><text text-anchor="middle" pointer-events="none" x="0" y="-5" font-size="10px" fill="#2A2C34" font-family="sans-serif"> The</text><text text-anchor="middle" pointer-events="none" x="0" y="5" font-size="10px" fill="#2A2C34" font-family="sans-serif"> Matrix</text><text text-anchor="middle" pointer-events="none" x="0" y="15" font-size="10px" fill="#2A2C34" font-family="sans-serif"> Reloa…</text></g><g class="node" transform="translate(-61.150595318471844,89.12090029210991)"><circle class="outline" cx="0" cy="0" r="25" fill="#57C7E3" stroke="#23b3d7" stroke-width="2px"/><text text-anchor="middle" pointer-events="none" font-family="sans-serif" dy="1.5625" font-size="25" fill="#2A2C34"/><text text-anchor="middle" pointer-events="none" font-family="sans-serif" dy="1.5625" font-size="25" fill="#2A2C34"/><text text-anchor="middle" pointer-events="none" x="0" y="0" font-size="10px" fill="#2A2C34" font-family="sans-serif"> The</text><text text-anchor="middle" pointer-events="none" x="0" y="10" font-size="10px" fill="#2A2C34" font-family="sans-serif"> Matrix</text></g><g class="node" transform="translate(-119.98622385229211,183.79904532384066)"><circle class="outline" cx="0" cy="0" r="25" fill="#F79767" stroke="#f36924" stroke-width="2px"/><text text-anchor="middle" pointer-events="none" font-family="sans-serif" dy="1.5625" font-size="25" fill="#FFFFFF"/><text text-anchor="middle" pointer-events="none" font-family="sans-serif" dy="1.5625" font-size="25" fill="#FFFFFF"/><text text-anchor="middle" pointer-events="none" x="0" y="0" font-size="10px" fill="#FFFFFF" font-family="sans-serif"> Emil</text><text text-anchor="middle" pointer-events="none" x="0" y="10" font-size="10px" fill="#FFFFFF" font-family="sans-serif"> Eifrem</text></g></g></svg>