<svg xmlns="http://www.w3.org/2000/svg" width="464.6530456542969" height="367.6689453125" viewBox="-108.39983367919922 -75.21084594726562 464.6530456542969 367.6689453125"><title>Neo4j Graph Visualization</title><desc>Created using Neo4j (http://www.neo4j.com/)</desc><g class="layer relationships"><g class="relationship" transform="translate(224.73898880429306 145.70663505488952) rotate(452.55483254348513)"><path class="outline" fill="#A5ABB6" stroke="none" d="M 25 0.5 L 32.653063453107464 0.5 L 32.653063453107464 -0.5 L 25 -0.5 Z M 78.21556345310746 0.5 L 85.86862690621493 0.5 L 85.86862690621493 3.5 L 92.86862690621493 0 L 85.86862690621493 -3.5 L 85.86862690621493 -0.5 L 78.21556345310746 -0.5 Z"/><text text-anchor="middle" pointer-events="none" font-size="8px" fill="#000000" x="55.434313453107464" y="3" transform="rotate(180 55.434313453107464 0)" font-family="sans-serif">ACTED_IN</text></g><g class="relationship" transform="translate(224.73898880429306 145.70663505488952) rotate(382.9063085548673)"><path class="outline" fill="#A5ABB6" stroke="none" d="M 25 0.5 L 29.363893600691668 0.5 L 29.363893600691668 -0.5 L 25 -0.5 Z M 74.92639360069167 0.5 L 79.29028720138334 0.5 L 79.29028720138334 3.5 L 86.29028720138334 0 L 79.29028720138334 -3.5 L 79.29028720138334 -0.5 L 74.92639360069167 -0.5 Z"/><text text-anchor="middle" pointer-events="none" font-size="8px" fill="#000000" x="52.14514360069167" y="3" font-family="sans-serif">ACTED_IN</text></g><g class="relationship" transform="translate(224.73898880429306 145.70663505488952) rotate(209.23292240831915)"><path class="outline" fill="#A5ABB6" stroke="none" d="M 25 0.5 L 26.373298635595347 0.5 L 26.373298635595347 -0.5 L 25 -0.5 Z M 61.70923613559535 0.5 L 63.082534771190694 0.5 L 63.082534771190694 3.5 L 70.0825347711907 0 L 63.082534771190694 -3.5 L 63.082534771190694 -0.5 L 61.70923613559535 -0.5 Z"/><text text-anchor="middle" pointer-events="none" font-size="8px" fill="#000000" x="44.04126738559535" y="3" transform="rotate(180 44.04126738559535 0)" font-family="sans-serif">ACTE…</text></g><g class="relationship" transform="translate(224.73898880429306 145.70663505488952) rotate(232.66841425595123)"><path class="outline" fill="#A5ABB6" stroke="none" d="M 25 0.5 L 40.48195208538843 0.5 L 40.48195208538843 -0.5 L 25 -0.5 Z M 86.04445208538843 0.5 L 101.52640417077686 0.5 L 101.52640417077686 3.5 L 108.52640417077686 0 L 101.52640417077686 -3.5 L 101.52640417077686 -0.5 L 86.04445208538843 -0.5 Z"/><text text-anchor="middle" pointer-events="none" font-size="8px" fill="#000000" x="63.26320208538843" y="3" transform="rotate(180 63.26320208538843 0)" font-family="sans-serif">ACTED_IN</text></g><g class="relationship" transform="translate(151.94777353711976 -46.21085059034398) rotate(454.00337339208477)"><path class="outline" fill="#A5ABB6" stroke="none" d="M 25 0.5 L 46.63811167865748 0.5 L 46.63811167865748 -0.5 L 25 -0.5 Z M 92.20061167865748 0.5 L 113.83872335731496 0.5 L 113.83872335731496 3.5 L 120.83872335731496 0 L 113.83872335731496 -3.5 L 113.83872335731496 -0.5 L 92.20061167865748 -0.5 Z"/><text text-anchor="middle" pointer-events="none" font-size="8px" fill="#000000" x="69.41936167865748" y="3" transform="rotate(180 69.41936167865748 0)" font-family="sans-serif">ACTED_IN</text></g><g class="relationship" transform="translate(151.94777353711976 -46.21085059034398) rotate(455.4512919632109)"><path class="outline" fill="#A5ABB6" stroke="none" d="M 25 0.5 L 27.010837332402154 0.5 L 27.010837332402154 -0.5 L 25 -0.5 Z M 52.124118582402154 0.5 L 54.13495591480431 0.5 L 54.13495591480431 3.5 L 61.13495591480431 0 L 54.13495591480431 -3.5 L 54.13495591480431 -0.5 L 52.124118582402154 -0.5 Z"/><text text-anchor="middle" pointer-events="none" font-size="8px" fill="#000000" x="39.567477957402154" y="3" transform="rotate(180 39.567477957402154 0)" font-family="sans-serif">AC…</text></g><g class="relationship" transform="translate(245.03157791471284 27.285356261794632) rotate(505.1195589157084)"><path class="outline" fill="#A5ABB6" stroke="none" d="M 25 0.5 L 36.658912763245716 0.5 L 36.658912763245716 -0.5 L 25 -0.5 Z M 82.22141276324572 0.5 L 93.88032552649143 0.5 L 93.88032552649143 3.5 L 100.88032552649143 0 L 93.88032552649143 -3.5 L 93.88032552649143 -0.5 L 82.22141276324572 -0.5 Z"/><text text-anchor="middle" pointer-events="none" font-size="8px" fill="#000000" x="59.440162763245716" y="3" transform="rotate(180 59.440162763245716 0)" font-family="sans-serif">ACTED_IN</text></g><g class="relationship" transform="translate(245.03157791471284 27.285356261794632) rotate(533.1030195726712)"><path class="outline" fill="#A5ABB6" stroke="none" d="M 25 0.5 L 26.94572095120121 0.5 L 26.94572095120121 -0.5 L 25 -0.5 Z M 68.05900220120121 0.5 L 70.00472315240242 0.5 L 70.00472315240242 3.5 L 77.00472315240242 0 L 70.00472315240242 -3.5 L 70.00472315240242 -0.5 L 68.05900220120121 -0.5 Z"/><text text-anchor="middle" pointer-events="none" font-size="8px" fill="#000000" x="47.50236157620121" y="3" transform="rotate(180 47.50236157620121 0)" font-family="sans-serif">ACTED…</text></g><g class="relationship" transform="translate(33.52666419981044 88.43760095137554) rotate(199.6445557154326)"><path class="outline" fill="#A5ABB6" stroke="none" d="M 25 0.5 L 33.67147024502508 0.5 L 33.67147024502508 -0.5 L 25 -0.5 Z M 79.23397024502508 0.5 L 87.90544049005015 0.5 L 87.90544049005015 3.5 L 94.90544049005015 0 L 87.90544049005015 -3.5 L 87.90544049005015 -0.5 L 79.23397024502508 -0.5 Z"/><text text-anchor="middle" pointer-events="none" font-size="8px" fill="#000000" x="56.45272024502508" y="3" transform="rotate(180 56.45272024502508 0)" font-family="sans-serif">ACTED_IN</text></g><g class="relationship" transform="translate(33.52666419981044 88.43760095137554) rotate(248.2413546873113)"><path class="outline" fill="#A5ABB6" stroke="none" d="M 25 0.5 L 33.85303245890606 0.5 L 33.85303245890606 -0.5 L 25 -0.5 Z M 79.41553245890606 0.5 L 88.26856491781211 0.5 L 88.26856491781211 3.5 L 95.26856491781211 0 L 88.26856491781211 -3.5 L 88.26856491781211 -0.5 L 79.41553245890606 -0.5 Z"/><text text-anchor="middle" pointer-events="none" font-size="8px" fill="#000000" x="56.63428245890606" y="3" transform="rotate(180 56.63428245890606 0)" font-family="sans-serif">ACTED_IN</text></g><g class="relationship" transform="translate(33.52666419981044 88.43760095137554) rotate(462.2591618395876)"><path class="outline" fill="#A5ABB6" stroke="none" d="M 25 0.5 L 34.30862021856347 0.5 L 34.30862021856347 -0.5 L 25 -0.5 Z M 79.87112021856348 0.5 L 89.17974043712694 0.5 L 89.17974043712694 3.5 L 96.17974043712694 0 L 89.17974043712694 -3.5 L 89.17974043712694 -0.5 L 79.87112021856348 -0.5 Z"/><text text-anchor="middle" pointer-events="none" font-size="8px" fill="#000000" x="57.08987021856347" y="3" transform="rotate(180 57.08987021856347 0)" font-family="sans-serif">ACTED_IN</text></g><g class="relationship" transform="translate(33.52666419981044 88.43760095137554) rotate(511.6544791583946)"><path class="outline" fill="#A5ABB6" stroke="none" d="M 25 0.5 L 34.575312085036025 0.5 L 34.575312085036025 -0.5 L 25 -0.5 Z M 80.13781208503602 0.5 L 89.71312417007205 0.5 L 89.71312417007205 3.5 L 96.71312417007205 0 L 89.71312417007205 -3.5 L 89.71312417007205 -0.5 L 80.13781208503602 -0.5 Z"/><text text-anchor="middle" pointer-events="none" font-size="8px" fill="#000000" x="57.356562085036025" y="3" transform="rotate(180 57.356562085036025 0)" font-family="sans-serif">ACTED_IN</text></g><g class="relationship" transform="translate(33.52666419981044 88.43760095137554) rotate(365.716086688863)"><path class="outline" fill="#A5ABB6" stroke="none" d="M 25 0.5 L 28.108871321449776 0.5 L 28.108871321449776 -0.5 L 25 -0.5 Z M 73.67137132144978 0.5 L 76.78024264289955 0.5 L 76.78024264289955 3.5 L 83.78024264289955 0 L 76.78024264289955 -3.5 L 76.78024264289955 -0.5 L 73.67137132144978 -0.5 Z"/><text text-anchor="middle" pointer-events="none" font-size="8px" fill="#000000" x="50.890121321449776" y="3" font-family="sans-serif">ACTED_IN</text></g><g class="relationship" transform="translate(33.52666419981044 88.43760095137554) rotate(336.07734703577864)"><path class="outline" fill="#A5ABB6" stroke="none" d="M 25 0.5 L 34.01800038792172 0.5 L 34.01800038792172 -0.5 L 25 -0.5 Z M 79.58050038792172 0.5 L 88.59850077584343 0.5 L 88.59850077584343 3.5 L 95.59850077584343 0 L 88.59850077584343 -3.5 L 88.59850077584343 -0.5 L 79.58050038792172 -0.5 Z"/><text text-anchor="middle" pointer-events="none" font-size="8px" fill="#000000" x="56.79925038792172" y="3" font-family="sans-serif">ACTED_IN</text></g></g><g class="layer nodes"><g class="node" transform="translate(224.73898880429306,145.70663505488952)"><circle class="outline" cx="0" cy="0" r="25" fill="#F79767" stroke="#f36924" stroke-width="2px"/><text text-anchor="middle" pointer-events="none" font-family="sans-serif" dy="1.5625" font-size="25" fill="#FFFFFF"/><text text-anchor="middle" pointer-events="none" font-family="sans-serif" dy="1.5625" font-size="25" fill="#FFFFFF"/><text text-anchor="middle" pointer-events="none" x="0" y="0" font-size="10px" fill="#FFFFFF" font-family="sans-serif"> Hugo</text><text text-anchor="middle" pointer-events="none" x="0" y="10" font-size="10px" fill="#FFFFFF" font-family="sans-serif"> Weaving</text></g><g class="node" transform="translate(219.48493997393248,263.45810289985815)"><circle class="outline" cx="0" cy="0" r="25" fill="#57C7E3" stroke="#23b3d7" stroke-width="2px"/><text text-anchor="middle" pointer-events="none" font-family="sans-serif" dy="1.5625" font-size="25" fill="#2A2C34"/><text text-anchor="middle" pointer-events="none" font-family="sans-serif" dy="1.5625" font-size="25" fill="#2A2C34"/><text text-anchor="middle" pointer-events="none" x="0" y="0" font-size="10px" fill="#2A2C34" font-family="sans-serif"> Cloud</text><text text-anchor="middle" pointer-events="none" x="0" y="10" font-size="10px" fill="#2A2C34" font-family="sans-serif"> Atlas</text></g><g class="node" transform="translate(327.25320835581493,189.02363881910154)"><circle class="outline" cx="0" cy="0" r="25" fill="#57C7E3" stroke="#23b3d7" stroke-width="2px"/><text text-anchor="middle" pointer-events="none" font-family="sans-serif" dy="1.5625" font-size="25" fill="#2A2C34"/><text text-anchor="middle" pointer-events="none" font-family="sans-serif" dy="1.5625" font-size="25" fill="#2A2C34"/><text text-anchor="middle" pointer-events="none" x="0" y="0" font-size="10px" fill="#2A2C34" font-family="sans-serif"> V for</text><text text-anchor="middle" pointer-events="none" x="0" y="10" font-size="10px" fill="#2A2C34" font-family="sans-serif"> Vendetta</text></g><g class="node" transform="translate(141.76601287715206,99.27201774938382)"><circle class="outline" cx="0" cy="0" r="25" fill="#57C7E3" stroke="#23b3d7" stroke-width="2px"/><text text-anchor="middle" pointer-events="none" font-family="sans-serif" dy="1.5625" font-size="25" fill="#2A2C34"/><text text-anchor="middle" pointer-events="none" font-family="sans-serif" dy="1.5625" font-size="25" fill="#2A2C34"/><text text-anchor="middle" pointer-events="none" font-family="sans-serif" dy="1.5625" font-size="25" fill="#2A2C34"/><text text-anchor="middle" pointer-events="none" x="0" y="-5" font-size="10px" fill="#2A2C34" font-family="sans-serif"> The</text><text text-anchor="middle" pointer-events="none" x="0" y="5" font-size="10px" fill="#2A2C34" font-family="sans-serif"> Matrix</text><text text-anchor="middle" pointer-events="none" x="0" y="15" font-size="10px" fill="#2A2C34" font-family="sans-serif"> Revol…</text></g><g class="node" transform="translate(143.7649944026494,39.53454436519726)"><circle class="outline" cx="0" cy="0" r="25" fill="#57C7E3" stroke="#23b3d7" stroke-width="2px"/><text text-anchor="middle" pointer-events="none" font-family="sans-serif" dy="1.5625" font-size="25" fill="#2A2C34"/><text text-anchor="middle" pointer-events="none" font-family="sans-serif" dy="1.5625" font-size="25" fill="#2A2C34"/><text text-anchor="middle" pointer-events="none" font-family="sans-serif" dy="1.5625" font-size="25" fill="#2A2C34"/><text text-anchor="middle" pointer-events="none" x="0" y="-5" font-size="10px" fill="#2A2C34" font-family="sans-serif"> The</text><text text-anchor="middle" pointer-events="none" x="0" y="5" font-size="10px" fill="#2A2C34" font-family="sans-serif"> Matrix</text><text text-anchor="middle" pointer-events="none" x="0" y="15" font-size="10px" fill="#2A2C34" font-family="sans-serif"> Reloa…</text></g><g class="node" transform="translate(151.94777353711976,-46.21085059034398)"><circle class="outline" cx="0" cy="0" r="25" fill="#F79767" stroke="#f36924" stroke-width="2px"/><text text-anchor="middle" pointer-events="none" font-family="sans-serif" dy="1.5625" font-size="25" fill="#FFFFFF"/><text text-anchor="middle" pointer-events="none" font-family="sans-serif" dy="1.5625" font-size="25" fill="#FFFFFF"/><text text-anchor="middle" pointer-events="none" x="0" y="0" font-size="10px" fill="#FFFFFF" font-family="sans-serif"> Laurence</text><text text-anchor="middle" pointer-events="none" x="0" y="10" font-size="10px" fill="#FFFFFF" font-family="sans-serif"> Fishbur…</text></g><g class="node" transform="translate(245.03157791471284,27.285356261794632)"><circle class="outline" cx="0" cy="0" r="25" fill="#F79767" stroke="#f36924" stroke-width="2px"/><text text-anchor="middle" pointer-events="none" font-family="sans-serif" dy="1.5625" font-size="25" fill="#FFFFFF"/><text text-anchor="middle" pointer-events="none" x="0" y="5" font-size="10px" fill="#FFFFFF" font-family="sans-serif"> Carrie-A…</text></g><g class="node" transform="translate(33.52666419981044,88.43760095137554)"><circle class="outline" cx="0" cy="0" r="25" fill="#F79767" stroke="#f36924" stroke-width="2px"/><text text-anchor="middle" pointer-events="none" font-family="sans-serif" dy="1.5625" font-size="25" fill="#FFFFFF"/><text text-anchor="middle" pointer-events="none" font-family="sans-serif" dy="1.5625" font-size="25" fill="#FFFFFF"/><text text-anchor="middle" pointer-events="none" x="0" y="0" font-size="10px" fill="#FFFFFF" font-family="sans-serif"> Keanu</text><text text-anchor="middle" pointer-events="none" x="0" y="10" font-size="10px" fill="#FFFFFF" font-family="sans-serif"> Reeves</text></g><g class="node" transform="translate(-79.39983673377675,48.12730392928091)"><circle class="outline" cx="0" cy="0" r="25" fill="#57C7E3" stroke="#23b3d7" stroke-width="2px"/><text text-anchor="middle" pointer-events="none" font-family="sans-serif" dy="1.5625" font-size="25" fill="#2A2C34"/><text text-anchor="middle" pointer-events="none" x="0" y="5" font-size="10px" fill="#2A2C34" font-family="sans-serif"> Somethi…</text></g><g class="node" transform="translate(-11.05660183681611,-23.26226519401144)"><circle class="outline" cx="0" cy="0" r="25" fill="#57C7E3" stroke="#23b3d7" stroke-width="2px"/><text text-anchor="middle" pointer-events="none" font-family="sans-serif" dy="1.5625" font-size="25" fill="#2A2C34"/><text text-anchor="middle" pointer-events="none" font-family="sans-serif" dy="1.5625" font-size="25" fill="#2A2C34"/><text text-anchor="middle" pointer-events="none" x="0" y="0" font-size="10px" fill="#2A2C34" font-family="sans-serif"> The</text><text text-anchor="middle" pointer-events="none" x="0" y="10" font-size="10px" fill="#2A2C34" font-family="sans-serif"> Replac…</text></g><g class="node" transform="translate(7.796093329080118,206.8540998654871)"><circle class="outline" cx="0" cy="0" r="25" fill="#57C7E3" stroke="#23b3d7" stroke-width="2px"/><text text-anchor="middle" pointer-events="none" font-family="sans-serif" dy="1.5625" font-size="25" fill="#2A2C34"/><text text-anchor="middle" pointer-events="none" font-family="sans-serif" dy="1.5625" font-size="25" fill="#2A2C34"/><text text-anchor="middle" pointer-events="none" x="0" y="0" font-size="10px" fill="#2A2C34" font-family="sans-serif"> Johnny</text><text text-anchor="middle" pointer-events="none" x="0" y="10" font-size="10px" fill="#2A2C34" font-family="sans-serif"> Mnemo…</text></g><g class="node" transform="translate(-73.59310725887651,146.22548166937776)"><circle class="outline" cx="0" cy="0" r="25" fill="#57C7E3" stroke="#23b3d7" stroke-width="2px"/><text text-anchor="middle" pointer-events="none" font-family="sans-serif" dy="1.5625" font-size="25" fill="#2A2C34"/><text text-anchor="middle" pointer-events="none" font-family="sans-serif" dy="1.5625" font-size="25" fill="#2A2C34"/><text text-anchor="middle" pointer-events="none" font-family="sans-serif" dy="1.5625" font-size="25" fill="#2A2C34"/><text text-anchor="middle" pointer-events="none" x="0" y="-5" font-size="10px" fill="#2A2C34" font-family="sans-serif"> The</text><text text-anchor="middle" pointer-events="none" x="0" y="5" font-size="10px" fill="#2A2C34" font-family="sans-serif"> Devil's</text><text text-anchor="middle" pointer-events="none" x="0" y="15" font-size="10px" fill="#2A2C34" font-family="sans-serif"> Advoc…</text></g></g></svg>