<svg xmlns="http://www.w3.org/2000/svg" width="242.6091766357422" height="254.2950439453125" viewBox="-22.400615692138672 -33.19622039794922 242.6091766357422 254.2950439453125"><title>Neo4j Graph Visualization</title><desc>Created using Neo4j (http://www.neo4j.com/)</desc><g class="layer relationships"><g class="relationship" transform="translate(79.60259128751176 96.09284380057208) rotate(417.76161673532874)"><path class="outline" fill="#A5ABB6" stroke="none" d="M 25 0.5 L 30.470880451422858 0.5 L 30.470880451422858 -0.5 L 25 -0.5 Z M 76.03338045142286 0.5 L 81.50426090284572 0.5 L 81.50426090284572 3.5 L 88.50426090284572 0 L 81.50426090284572 -3.5 L 81.50426090284572 -0.5 L 76.03338045142286 -0.5 Z"/><text text-anchor="middle" pointer-events="none" font-size="8px" fill="#000000" x="53.25213045142286" y="3" font-family="sans-serif">ACTED_IN</text></g><g class="relationship" transform="translate(79.60259128751176 96.09284380057208) rotate(354.59795057316114)"><path class="outline" fill="#A5ABB6" stroke="none" d="M 25 0.5 L 29.770672501250196 0.5 L 29.770672501250196 -0.5 L 25 -0.5 Z M 75.3331725012502 0.5 L 80.10384500250039 0.5 L 80.10384500250039 3.5 L 87.10384500250039 0 L 80.10384500250039 -3.5 L 80.10384500250039 -0.5 L 75.3331725012502 -0.5 Z"/><text text-anchor="middle" pointer-events="none" font-size="8px" fill="#000000" x="52.551922501250196" y="3" font-family="sans-serif">ACTED_IN</text></g><g class="relationship" transform="translate(79.60259128751176 96.09284380057208) rotate(294.320209896386)"><path class="outline" fill="#A5ABB6" stroke="none" d="M 25 0.5 L 28.746556544200097 0.5 L 28.746556544200097 -0.5 L 25 -0.5 Z M 74.3090565442001 0.5 L 78.0556130884002 0.5 L 78.0556130884002 3.5 L 85.0556130884002 0 L 78.0556130884002 -3.5 L 78.0556130884002 -0.5 L 74.3090565442001 -0.5 Z"/><text text-anchor="middle" pointer-events="none" font-size="8px" fill="#000000" x="51.5278065442001" y="3" font-family="sans-serif">ACTED_IN</text></g><g class="relationship" transform="translate(79.60259128751176 96.09284380057208) rotate(228.69799734134153)"><path class="outline" fill="#A5ABB6" stroke="none" d="M 25 0.5 L 29.02187036562693 0.5 L 29.02187036562693 -0.5 L 25 -0.5 Z M 74.58437036562694 0.5 L 78.60624073125386 0.5 L 78.60624073125386 3.5 L 85.60624073125386 0 L 78.60624073125386 -3.5 L 78.60624073125386 -0.5 L 74.58437036562694 -0.5 Z"/><text text-anchor="middle" pointer-events="none" font-size="8px" fill="#000000" x="51.80312036562693" y="3" transform="rotate(180 51.80312036562693 0)" font-family="sans-serif">ACTED_IN</text></g><g class="relationship" transform="translate(79.60259128751176 96.09284380057208) rotate(488.2119471931433)"><path class="outline" fill="#A5ABB6" stroke="none" d="M 25 0.5 L 30.538992755640166 0.5 L 30.538992755640166 -0.5 L 25 -0.5 Z M 76.10149275564017 0.5 L 81.64048551128033 0.5 L 81.64048551128033 3.5 L 88.64048551128033 0 L 81.64048551128033 -3.5 L 81.64048551128033 -0.5 L 76.10149275564017 -0.5 Z"/><text text-anchor="middle" pointer-events="none" font-size="8px" fill="#000000" x="53.320242755640166" y="3" transform="rotate(180 53.320242755640166 0)" font-family="sans-serif">ACTED_IN</text></g></g><g class="layer nodes"><g class="node" transform="translate(79.60259128751176,96.09284380057208)"><circle class="outline" cx="0" cy="0" r="25" fill="#F79767" stroke="#f36924" stroke-width="2px"/><text text-anchor="middle" pointer-events="none" font-family="sans-serif" dy="1.5625" font-size="25" fill="#FFFFFF"/><text text-anchor="middle" pointer-events="none" font-family="sans-serif" dy="1.5625" font-size="25" fill="#FFFFFF"/><text text-anchor="middle" pointer-events="none" x="0" y="0" font-size="10px" fill="#FFFFFF" font-family="sans-serif"> Hugo</text><text text-anchor="middle" pointer-events="none" x="0" y="10" font-size="10px" fill="#FFFFFF" font-family="sans-serif"> Weaving</text></g><g class="node" transform="translate(140.15064852694886,192.0988332368105)"><circle class="outline" cx="0" cy="0" r="25" fill="#57C7E3" stroke="#23b3d7" stroke-width="2px"/><text text-anchor="middle" pointer-events="none" font-family="sans-serif" dy="1.5625" font-size="25" fill="#2A2C34"/><text text-anchor="middle" pointer-events="none" font-family="sans-serif" dy="1.5625" font-size="25" fill="#2A2C34"/><text text-anchor="middle" pointer-events="none" x="0" y="0" font-size="10px" fill="#2A2C34" font-family="sans-serif"> Cloud</text><text text-anchor="middle" pointer-events="none" x="0" y="10" font-size="10px" fill="#2A2C34" font-family="sans-serif"> Atlas</text></g><g class="node" transform="translate(191.20853802425913,85.53894796353907)"><circle class="outline" cx="0" cy="0" r="25" fill="#57C7E3" stroke="#23b3d7" stroke-width="2px"/><text text-anchor="middle" pointer-events="none" font-family="sans-serif" dy="1.5625" font-size="25" fill="#2A2C34"/><text text-anchor="middle" pointer-events="none" font-family="sans-serif" dy="1.5625" font-size="25" fill="#2A2C34"/><text text-anchor="middle" pointer-events="none" x="0" y="0" font-size="10px" fill="#2A2C34" font-family="sans-serif"> V for</text><text text-anchor="middle" pointer-events="none" x="0" y="10" font-size="10px" fill="#2A2C34" font-family="sans-serif"> Vendetta</text></g><g class="node" transform="translate(124.92743402245117,-4.196221422495254)"><circle class="outline" cx="0" cy="0" r="25" fill="#57C7E3" stroke="#23b3d7" stroke-width="2px"/><text text-anchor="middle" pointer-events="none" font-family="sans-serif" dy="1.5625" font-size="25" fill="#2A2C34"/><text text-anchor="middle" pointer-events="none" font-family="sans-serif" dy="1.5625" font-size="25" fill="#2A2C34"/><text text-anchor="middle" pointer-events="none" font-family="sans-serif" dy="1.5625" font-size="25" fill="#2A2C34"/><text text-anchor="middle" pointer-events="none" x="0" y="-5" font-size="10px" fill="#2A2C34" font-family="sans-serif"> The</text><text text-anchor="middle" pointer-events="none" x="0" y="5" font-size="10px" fill="#2A2C34" font-family="sans-serif"> Matrix</text><text text-anchor="middle" pointer-events="none" x="0" y="15" font-size="10px" fill="#2A2C34" font-family="sans-serif"> Revol…</text></g><g class="node" transform="translate(6.599383561522314,13.00089382696683)"><circle class="outline" cx="0" cy="0" r="25" fill="#57C7E3" stroke="#23b3d7" stroke-width="2px"/><text text-anchor="middle" pointer-events="none" font-family="sans-serif" dy="1.5625" font-size="25" fill="#2A2C34"/><text text-anchor="middle" pointer-events="none" font-family="sans-serif" dy="1.5625" font-size="25" fill="#2A2C34"/><text text-anchor="middle" pointer-events="none" font-family="sans-serif" dy="1.5625" font-size="25" fill="#2A2C34"/><text text-anchor="middle" pointer-events="none" x="0" y="-5" font-size="10px" fill="#2A2C34" font-family="sans-serif"> The</text><text text-anchor="middle" pointer-events="none" x="0" y="5" font-size="10px" fill="#2A2C34" font-family="sans-serif"> Matrix</text><text text-anchor="middle" pointer-events="none" x="0" y="15" font-size="10px" fill="#2A2C34" font-family="sans-serif"> Reloa…</text></g><g class="node" transform="translate(9.307740802432477,185.3833468931175)"><circle class="outline" cx="0" cy="0" r="25" fill="#57C7E3" stroke="#23b3d7" stroke-width="2px"/><text text-anchor="middle" pointer-events="none" font-family="sans-serif" dy="1.5625" font-size="25" fill="#2A2C34"/><text text-anchor="middle" pointer-events="none" font-family="sans-serif" dy="1.5625" font-size="25" fill="#2A2C34"/><text text-anchor="middle" pointer-events="none" x="0" y="0" font-size="10px" fill="#2A2C34" font-family="sans-serif"> The</text><text text-anchor="middle" pointer-events="none" x="0" y="10" font-size="10px" fill="#2A2C34" font-family="sans-serif"> Matrix</text></g></g></svg>